General
Complete name                    : U.S. Marshals .mkv
Format                           : Matroska
File size                        : 1.85 GiB
Duration                         : 2h 5mn
Overall bit rate                 : 2 111 Kbps


Video
ID                               : 1
Format                           : AVC
Duration                         : 2h 5mn
Bit rate                         : 1 685 Kbps
Width                            : 720 pixels
Height                           : 568 pixels
Display aspect ratio             : 16:9
Frame rate                       : 25.000 fps
Resolution                       : 8 bits
Colorimetry                      : 4:2:0
Scan type                        : Progressive
Bits/(Pixel*Frame)               : 0.165
Stream size                      : 1.48 GiB (80%)
Writing library                  : x264 core 79

Audio #1
ID                               : 2
Format                           : MPEG Audio
Format version                   : Version 1
Format profile                   : Layer 3
Mode                             : Joint stereo / MS Stereo
Codec ID                         : A_MPEG/L3
Codec ID/Hint                    : MP3
Duration                         : 2h 5mn
Bit rate mode                    : Constant
Bit rate                         : 128 Kbps
Channel(s)                       : 2 channels
Sampling rate                    : 48.0 KHz
Stream size                      : 115 MiB (6%)
Writing library                  : LAME3.98
Language.........................: English

Audio #2
ID                               : 3
Format                           : MPEG Audio
Format version                   : Version 1
Format profile                   : Layer 3
Mode                             : Joint stereo / MS Stereo
Codec ID                         : A_MPEG/L3
Codec ID/Hint                    : MP3
Duration                         : 2h 5mn
Bit rate mode                    : Constant
Bit rate                         : 128 Kbps
Channel(s)                       : 2 channels
Sampling rate                    : 48.0 KHz
Stream size                      : 115 MiB (6%)
Writing library                  : LAME3.98
Language.........................: German

Audio #3
ID                               : 4
Format                           : MPEG Audio
Format version                   : Version 1
Format profile                   : Layer 3
Mode                             : Joint stereo
Codec ID                         : A_MPEG/L3
Codec ID/Hint                    : MP3
Duration                         : 2h 5mn
Bit rate mode                    : Constant
Bit rate                         : 128 Kbps
Channel(s)                       : 2 channels
Sampling rate                    : 48.0 KHz
Stream size                      : 115 MiB (6%)
Writing library                  : LAME3.98
Language.........................: Spanish

Text #1
Language                         : English

Text #2
Language                         : German

Text #3
Language                         : Spanish

Text #4
Language                         : Dutch

Text #5
Language                         : Swedish

Text #6
Language                         : Norwegian

Text #7

Language                         : Danish

Text #8
Language                         : Finnish

Text #9
Language                         : Portuguese

Text #10
Language                         : xxxxxx(Hindi??)

Text #11
Language                         : Polish

Text #12
Language                         : Greek

Text #13
Language                         : Czech

Text #14
Language                         : Turkish

Text #15
Language                         : Hungarian

Text #16
Language                         : Icelandic

Text #17
Language                         : Croatian

Text #18
Language                         : French

Text #19
Language                         : Italian

Text #20
Language                         : Italian

Text #21
Language                         : English

Text #22
Language                         : German


